Patient4_TMGait_0pt7_02_right_04_EMG.mot
version=1
nRows=27
nColumns=33
inDegrees=no
endheader
time	1LAddLong	2LGlutMax	3LGlutMed	4LIliopsoas	5LSemiMemb	6LBicFemLong	7LRecFem	8LVastMed	9LVastLat	10LGasMed	11LTibAnt	12lTibPost	13LPeroneusLong	14LSol	15LExtDigLong	16LFlexDigLong	17RAddLong	18RGlutMax	19RGlutMed	20RIliopsoas	21RSemiMemb	22RBicFemLong	23RRecFem	24RVastMed	25RVastLat	26RGasMed	27RTibAnt	28RTibPost	29RPeroneusLong	30RSol	31RExtDigLong	32RFlexDigLong
3.59	-0.004425	-0.16693	-0.071411	0.018005	0.046387	0.041046	0.10071	0.001831	0.06485	-0.08667	-0.10941	0.001221	0.00885	0.11002	0.046387	-0.11337	-0.006561	-0.13031	0.079956	0.14893	0.078278	0.099335	0.20035	-0.16281	-0.012512	0.001831	0.24124	-0.007019	-0.10819	0.062408	-0.00061	-0.020447
3.591	-0.012207	-0.1683	0.002289	0.000305	0.013733	0.08728	0.074768	0.009613	0.10223	-0.13397	-0.084229	0.018616	-0.024872	0.06012	-0.086975	-0.06134	-0.038452	-0.1886	-0.053864	0.17822	0.06485	0.098419	0.20111	-0.18066	-0.012207	0.002441	0.036011	-0.007782	-0.015564	0.10681	-0.001068	-0.011749
3.592	-0.020752	-0.177	0.008545	-0.004272	0.001221	0.12619	0.069122	0.002594	0.095215	-0.11932	-0.015106	-0.003662	-0.050201	0.082855	-0.002441	0.21194	-0.049438	-0.1712	-0.16266	0.03479	0.060883	0.084076	0.15106	-0.16388	-0.026703	0	-0.50201	-0.010071	0.14877	0.10361	-0.006561	-0.016327
3.593	-0.015564	-0.14343	0.007019	0.013885	-0.077209	0.20309	0.098114	-0.001984	0.041656	-0.13275	0.029297	-0.000458	0.012207	-0.040131	0.07019	0.079041	-0.045471	-0.18753	-0.20874	0.032196	0.070038	0.0914	0.26688	-0.13748	-0.037537	0.001984	-0.64377	-0.004578	0.15045	0.072784	-0.00061	-0.02533
3.594	-0.020905	-0.077057	0.096893	0.014496	-0.15121	0.242	0.12604	0.003204	0.019226	-0.16174	-0.027161	-0.004883	0.069427	-0.063171	0.17578	0.030518	-0.046234	-0.21118	0.025635	0.13977	0.065002	0.087738	0.27039	-0.16373	-0.054626	0.003204	-0.22003	-0.015259	0.08728	0.061646	-0.00061	-0.023499
3.595	-0.028534	-0.041046	0.062103	0.028229	-0.215	0.34271	0.09613	0.003204	0.014343	-0.16327	-0.061035	-0.006561	0.041199	-0.04303	0.20599	0.028992	-0.03006	-0.25223	0.30472	0.1088	0.081635	0.10193	0.16419	-0.17685	-0.032959	0.005951	0.097351	-0.004883	-0.004425	0.023804	-0.001526	-0.022278
3.596	-0.044861	-0.071869	0.056152	0.006104	-0.17883	0.47791	0.10483	0.004883	0.018005	-0.13473	-0.015411	-0.001831	-0.004578	-0.03006	0.098419	0.019073	-0.016632	-0.224	0.29724	-0.043182	0.07843	0.098877	0.065002	-0.098572	-0.057831	-0.002136	-0.1416	-0.007477	0.006866	0.007629	-0.002594	-0.024719
3.597	-0.028839	-0.04837	0.07843	0.024414	-0.10193	0.53253	0.09964	0.010681	0.026398	-0.10162	0.087433	0.006866	0.019684	0.040894	0.00061	0.012054	-0.013123	-0.16296	0.22415	-0.035858	0.071564	0.12268	-0.1506	-0.069122	-0.069427	-0.000458	-0.24872	-0.003967	0.036163	0.007782	0.002899	-0.025024
3.598	-0.005951	-0.096741	0.12863	0.015564	-0.070953	0.37888	0.12604	0.007477	0.026703	-0.033875	0.041351	-0.004272	0.045471	0.076294	-0.043945	0.006104	-0.01236	-0.14969	0.30411	-0.081635	0.071869	0.10834	-0.028381	-0.16129	-0.060883	-0.007629	-0.13245	-0.009003	0.019379	-0.007782	-0.00061	-0.018921
3.599	0.016022	-0.1622	0.092468	0.003357	0.037689	0.061035	0.10681	-0.005035	0.031738	0.048218	0.04715	-0.009003	0.046234	0.015411	-0.16541	-0.030212	-0.024261	-0.16861	0.14236	0.014801	0.093231	0.10803	0.070496	-0.14389	-0.035553	-0.009766	-0.034027	-0.006561	-0.003357	-0.012512	-0.003662	-0.009003
3.6	0.03006	-0.19119	-0.009155	-0.007324	0.22903	-0.048981	0.10574	-0.009613	0.036774	0.11246	0.059357	-0.008087	0.040283	-0.014496	-0.11063	-0.95337	0.00412	-0.1918	0.29907	0.019226	0.070038	0.088806	0.18662	-0.12787	-0.021515	-0.007172	0.13611	-0.003967	-0.012665	-0.020905	-0.005188	-0.004425
3.601	0.026703	-0.27054	-0.11414	0.002899	0.25803	-0.35584	0.11688	-0.003052	0.02655	0.10178	0.023346	-0.001831	-0.01709	0.019684	-0.001831	0.086212	0.012512	-0.20523	0.15808	-0.028229	0.067291	0.10529	0.17334	-0.07309	-0.008392	0	0.26032	-0.006866	0.007935	-0.010376	-0.000763	-0.007019
3.602	0.002747	-0.28885	-0.11719	0.020142	0.15991	-0.47882	0.14191	-0.002747	0.023651	0.077057	0.036011	0.00412	-0.041046	0.011749	0.019379	0.84335	0.011597	-0.16678	-0.16663	-0.036621	0.068054	0.092468	0.15427	-0.036011	-0.005188	-0.003052	0.31143	-0.001373	0.006866	-0.034637	0.000153	-0.014954
3.603	-0.007019	-0.36728	-0.15442	-0.001526	0.10941	-0.51773	0.17349	0.00473	0.023956	0.02655	0.04425	0.018616	-0.006561	0.046539	0.04364	-0.18158	0.006256	-0.098724	-0.56091	0.1088	0.057068	0.10452	0.21881	-0.014343	0.014038	0.003662	0.43366	-0.005798	-0.040283	-0.030823	0.000153	-0.002136
3.604	-0.006561	-0.33691	-0.097504	0.007172	0.023956	-0.72861	0.19043	0.000305	0.006561	-0.095825	-0.000305	0.019379	-0.017395	0.073547	0.003662	0.36728	0.002136	-0.079498	-0.009918	0.25757	0.066071	0.090637	0.20096	0.06897	0.022736	0.001373	-0.12268	-0.004883	0.016632	-0.018463	-0.005188	-0.016174
3.605	-0.010071	-0.32562	-0.13977	0.01236	-0.006409	-0.6134	0.18936	0.001373	-0.012512	-0.17624	0.04837	0.014801	-0.056763	0.13886	0.037384	-0.005493	0.009155	-0.080414	0.26398	0.30655	0.06958	0.078278	0.10407	0.086517	0.026245	-0.003815	-0.62546	-0.006256	0.032806	-0.048828	-0.002899	-0.01709
3.606	0.001678	-0.26993	-0.11719	0.005188	0.003052	-0.11978	0.14557	0.00351	-0.015717	-0.1207	0.098877	-0.009003	-0.082245	0.038757	0.077057	-0.11002	0.012207	-0.12085	0.1149	0.15823	0.081024	0.067596	-0.086365	0.075378	0.021667	0.004883	-0.17792	-0.005646	-0.10437	-0.010681	-0.007019	-0.01236
3.607	0.020752	-0.25269	-0.093994	0.015259	0.10284	-0.034943	0.12009	-0.000153	-0.001373	0.14221	0.15198	-0.014496	-0.007019	-0.11581	0.09079	0.26321	0.014648	-0.15488	0.041656	-0.029602	0.084076	0.079193	-0.074158	0.057678	0.016174	0.000153	0.14618	-0.005951	-0.10834	0.029297	0.003357	-0.017242
3.608	0.023499	-0.24582	-0.075684	-0.002594	0.1474	-0.18417	0.073395	0.000916	0.010834	0.32486	0.1532	-0.017242	0.11612	-0.2359	0.060425	-0.42725	0.041504	-0.15762	0.08606	-0.21576	0.076752	0.056305	-0.020752	-0.058289	-0.001678	-0.001221	0.16357	-0.005341	0.25284	0.023499	-0.003662	-0.012512
3.609	0.007019	-0.24857	-0.039215	0.008087	0.060577	-0.17731	0.052032	0.003815	-0.014801	0.31006	0.005035	-0.016937	0.159	-0.12192	0.023346	-0.23926	0.088654	-0.14771	0.072784	-0.3215	0.07019	0.019226	0.14389	-0.082245	-0.043793	-0.000305	0.062103	-0.001068	0.60349	0.000916	-0.010681	-0.009918
3.61	-0.002594	-0.21454	-0.029602	-0.016174	0.022278	0.011139	0.10468	0.012207	-0.011597	0.09201	-0.013428	-0.011139	0.056915	-0.050354	0.062408	0.19272	0.10773	-0.12543	0.30792	-0.33356	0.08194	0.027771	0.17807	-0.067444	-0.033875	0.00061	-0.041962	-0.001678	0.20218	-0.023041	0.001373	-0.013123
3.611	-0.002747	-0.23056	-0.027466	-0.003815	-0.0177	0.080872	0.18539	0.027924	-0.001068	0.18082	-0.045776	-0.004883	-0.001984	0.093079	0.14572	0.13412	0.10544	-0.10773	0.37293	-0.2066	0.072327	0.033722	0.23529	-0.036774	-0.027008	0.003815	-0.20462	-0.001373	-0.38711	-0.034637	-0.002136	-0.003052
3.612	-0.008545	-0.24933	0.06546	-0.007019	-0.040436	0.11108	0.15121	0.02121	-0.02121	0.2739	-0.066071	-0.003357	-0.028381	0.15808	0.11627	0.24307	0.075836	-0.1648	0.80902	-0.09613	0.070801	0.027313	0.21469	-0.082855	-0.045166	0.006409	-0.14389	-0.001068	-0.33173	-0.020142	-0.000458	-0.005493
3.613	-0.006409	-0.28046	-0.007172	0.0354	-0.022278	0.11337	0.12528	0.014496	0.002289	0.063171	0.027466	0.01297	-0.050507	0.10773	0.076141	0.005188	0.062103	-0.16174	0.51254	0.059509	0.058289	0.002899	0.1297	-0.121	-0.030975	0.003815	0.064392	-0.00061	-0.16815	-0.00473	-0.000916	-0.005188
3.614	-0.007629	-0.27222	-0.050964	0.015869	0.006256	0.083923	0.11231	0.002289	0.017395	-0.23743	0.005646	0.024567	-0.030975	-0.10757	0.00885	-0.068512	0.048523	-0.14496	0.15991	0.1358	0.041504	0.002441	0.11826	-0.091095	-0.009766	-0.000458	0.21042	-0.001068	-0.059967	-0.012054	-0.003204	-0.002594
3.615	-0.007629	-0.26627	-0.040741	0.015259	0.032349	-0.021057	0.12344	-0.013428	0.080109	-0.25711	0.049438	0.025635	-0.017853	-0.17609	0.37933	-0.029907	0.041046	-0.12116	0.44525	0.077362	0.036469	0.001068	0.099335	-0.083466	0.008545	-0.006561	0.070801	-0.00061	-0.26459	-0.002594	0.001831	0.000153
3.616	-0.00824	-0.26169	0.002441	0.005341	-0.01236	-0.089722	0.12909	-0.018005	0.19775	-0.18188	0.002289	0.005341	-0.009003	-0.112	0.085449	-0.027161	0.040283	-0.13458	0.39063	0.028381	0.029755	0.001984	0.013275	-0.12283	-0.017853	0.000458	0.031891	-0.00351	-0.31876	0.029449	-0.003815	-0.000153
